<svg width="1186" height="304" viewBox="0 0 1186 304" fill="none" xmlns="http://www.w3.org/2000/svg">
<path d="M138.624 0.419495H0.471436V98.9881L53.0396 151.87L132.961 71.4712L212.989 151.975L132.961 232.484L53.0396 152.085L0.471436 204.967V303.531H138.624C178.579 303.531 216.899 287.562 245.152 259.14C273.405 230.718 289.277 192.17 289.277 151.975C289.277 132.073 285.38 112.363 277.809 93.976C270.238 75.5885 259.141 58.8829 245.152 44.8098C231.162 30.7366 214.555 19.5716 196.277 11.9553C177.998 4.33896 158.408 0.419495 138.624 0.419495Z" fill="#FF9000"/>
<path d="M416.31 52.0529H450.805V256.699H416.31V52.0529ZM483.525 227.014C492.888 227.14 502.199 225.591 511.02 222.44C519.12 219.495 526.43 214.71 532.377 208.461C538.738 201.527 543.515 193.288 546.378 184.316C549.945 173.011 551.659 161.2 551.45 149.345C551.724 138.2 550.006 127.096 546.378 116.558C543.789 108.855 539.295 101.934 533.317 96.4409C527.338 90.948 520.069 87.0609 512.186 85.1429C503.767 82.9865 495.106 81.9291 486.417 81.9932H434.825V52.0529H485.25C498.927 51.9348 512.563 53.5584 525.832 56.8828C537.642 59.8367 548.702 65.2376 558.299 72.7403C567.837 80.5223 575.282 90.5694 579.96 101.968C585.558 116.426 588.214 131.86 587.772 147.362C588.079 163.549 585.431 179.656 579.96 194.889C575.193 207.801 567.641 219.499 557.842 229.148C548.345 238.365 536.978 245.423 524.514 249.838C511.066 254.541 496.905 256.861 482.663 256.699H435.079V227.014H483.525Z" fill="black"/>
<path d="M633.682 89.7189C630.88 89.8516 628.08 89.3997 625.461 88.3935C622.841 87.3874 620.459 85.8469 618.463 83.8713C616.575 82.0433 615.082 79.8468 614.079 77.4156C613.075 74.9845 612.582 72.3718 612.629 69.7413C612.677 66.1074 613.673 62.5486 615.521 59.4211C617.368 56.2937 620.001 53.7078 623.158 51.9181C626.314 50.1283 629.884 49.199 633.51 49.2226C637.137 49.2462 640.695 50.2214 643.828 52.0521C646.864 53.8662 649.393 56.4186 651.183 59.4733C653.008 62.5466 653.956 66.0633 653.923 69.6395C653.975 73.2181 653.026 76.7398 651.183 79.8058C649.387 82.8156 646.856 85.3182 643.828 87.0756C640.725 88.806 637.233 89.7158 633.682 89.7189ZM617.144 108.577H650.169V256.698H617.144V108.577Z" fill="black"/>
<path d="M676.091 108.576H710.586L756.699 248.412L754.973 256.697H726.515L676.091 108.576ZM821.935 108.576L771.207 256.697H741.581L790.534 108.576H821.935Z" fill="black"/>
<path d="M851.256 52.0518H885.751V256.698H851.256V52.0518ZM874.033 171.912V141.972H917.659V171.912H874.033ZM1012.47 256.698H970.62L894.527 157.373L972.294 52.0518H1009.33L926.435 163.881L929.834 149.292L1012.47 256.698Z" fill="black"/>
<path d="M1050.67 89.7189C1047.91 89.8163 1045.16 89.3465 1042.58 88.3414C1040.01 87.3362 1037.67 85.8149 1035.7 83.8713C1033.82 82.0433 1032.32 79.8468 1031.32 77.4156C1030.32 74.9845 1029.82 72.3718 1029.87 69.7413C1029.92 66.1074 1030.91 62.5486 1032.76 59.4211C1034.61 56.2937 1037.24 53.7078 1040.4 51.9181C1043.56 50.1283 1047.12 49.199 1050.75 49.2226C1054.38 49.2462 1057.94 50.2214 1061.07 52.0521C1064.11 53.8782 1066.65 56.427 1068.47 59.4733C1070.26 62.5606 1071.19 66.071 1071.16 69.6395C1071.21 73.2106 1070.28 76.7263 1068.47 79.8058C1066.65 82.8068 1064.1 85.3057 1061.07 87.0756C1057.89 88.855 1054.31 89.7667 1050.67 89.7189ZM1034.13 108.577H1067.16V256.698H1034.13V108.577Z" fill="black"/>
<path d="M1092.52 135.365V108.576H1185.66V135.365H1092.52ZM1110.17 77.467H1143.25V214.153C1143.05 216.596 1143.34 219.051 1144.1 221.381C1144.85 223.711 1146.07 225.868 1147.66 227.725C1151.68 231.042 1156.84 232.633 1162.02 232.148C1165.96 232.185 1169.88 231.513 1173.58 230.165C1177.22 228.741 1180.64 226.808 1183.73 224.421V252.123C1179.61 254.821 1175.01 256.704 1170.19 257.665C1164.63 258.946 1158.94 259.575 1153.24 259.544C1144.43 259.959 1135.67 257.994 1127.88 253.853C1121.88 250.335 1117.15 244.994 1114.38 238.603C1111.57 232.075 1110.15 225.025 1110.22 217.913L1110.17 77.467Z" fill="black"/>
<path d="M416.31 52.0529H450.805V256.699H416.31V52.0529ZM483.525 227.014C492.888 227.14 502.199 225.591 511.02 222.44C519.12 219.495 526.43 214.71 532.377 208.461C538.738 201.527 543.515 193.288 546.378 184.316C549.945 173.011 551.659 161.2 551.45 149.345C551.724 138.2 550.006 127.096 546.378 116.558C543.789 108.855 539.295 101.934 533.317 96.4409C527.338 90.948 520.069 87.0609 512.186 85.1429C503.767 82.9865 495.106 81.9291 486.417 81.9932H434.825V52.0529H485.25C498.927 51.9348 512.563 53.5584 525.832 56.8828C537.642 59.8367 548.702 65.2376 558.299 72.7403C567.837 80.5223 575.282 90.5694 579.96 101.968C585.558 116.426 588.214 131.86 587.772 147.362C588.079 163.549 585.431 179.656 579.96 194.889C575.193 207.801 567.641 219.499 557.842 229.148C548.345 238.365 536.978 245.423 524.514 249.838C511.066 254.541 496.905 256.861 482.663 256.699H435.079V227.014H483.525Z" fill="black"/>
<path d="M633.682 89.7189C630.88 89.8516 628.08 89.3997 625.461 88.3935C622.841 87.3874 620.459 85.8469 618.463 83.8713C616.575 82.0433 615.082 79.8468 614.079 77.4156C613.075 74.9845 612.582 72.3718 612.629 69.7413C612.677 66.1074 613.673 62.5486 615.521 59.4211C617.368 56.2937 620.001 53.7078 623.158 51.9181C626.314 50.1283 629.884 49.199 633.51 49.2226C637.137 49.2462 640.695 50.2214 643.828 52.0521C646.864 53.8662 649.393 56.4186 651.183 59.4733C653.008 62.5466 653.956 66.0633 653.923 69.6395C653.975 73.2181 653.026 76.7398 651.183 79.8058C649.387 82.8156 646.856 85.3182 643.828 87.0756C640.725 88.806 637.233 89.7158 633.682 89.7189ZM617.144 108.577H650.169V256.698H617.144V108.577Z" fill="black"/>
<path d="M676.091 108.576H710.586L756.699 248.412L754.973 256.697H726.515L676.091 108.576ZM821.935 108.576L771.207 256.697H741.581L790.534 108.576H821.935Z" fill="black"/>
<path d="M851.256 52.0518H885.751V256.698H851.256V52.0518ZM874.033 171.912V141.972H917.659V171.912H874.033ZM1012.47 256.698H970.62L894.527 157.373L972.294 52.0518H1009.33L926.435 163.881L929.834 149.292L1012.47 256.698Z" fill="black"/>
<path d="M1050.67 89.7189C1047.91 89.8163 1045.16 89.3465 1042.58 88.3414C1040.01 87.3362 1037.67 85.8149 1035.7 83.8713C1033.82 82.0433 1032.32 79.8468 1031.32 77.4156C1030.32 74.9845 1029.82 72.3718 1029.87 69.7413C1029.92 66.1074 1030.91 62.5486 1032.76 59.4211C1034.61 56.2937 1037.24 53.7078 1040.4 51.9181C1043.56 50.1283 1047.12 49.199 1050.75 49.2226C1054.38 49.2462 1057.94 50.2214 1061.07 52.0521C1064.11 53.8782 1066.65 56.427 1068.47 59.4733C1070.26 62.5606 1071.19 66.071 1071.16 69.6395C1071.21 73.2106 1070.28 76.7263 1068.47 79.8058C1066.65 82.8068 1064.1 85.3057 1061.07 87.0756C1057.89 88.855 1054.31 89.7667 1050.67 89.7189ZM1034.13 108.577H1067.16V256.698H1034.13V108.577Z" fill="black"/>
<path d="M1092.52 135.365V108.576H1185.66V135.365H1092.52ZM1110.17 77.467H1143.25V214.153C1143.05 216.596 1143.34 219.051 1144.1 221.381C1144.85 223.711 1146.07 225.868 1147.66 227.725C1151.68 231.042 1156.84 232.633 1162.02 232.148C1165.96 232.185 1169.88 231.513 1173.58 230.165C1177.22 228.741 1180.64 226.808 1183.73 224.421V252.123C1179.61 254.821 1175.01 256.704 1170.19 257.665C1164.63 258.946 1158.94 259.575 1153.24 259.544C1144.43 259.959 1135.67 257.994 1127.88 253.853C1121.88 250.335 1117.15 244.994 1114.38 238.603C1111.57 232.075 1110.15 225.025 1110.22 217.913L1110.17 77.467Z" fill="black"/>
</svg>
